<svg xmlns="http://www.w3.org/2000/svg" viewBox="0 0 192 192">
  <!-- 背景 -->
  <rect width="192" height="192" fill="#0a0a0f" rx="24"/>
  <!-- ブロック（行1: 赤） -->
  <rect x="20" y="28" width="36" height="14" fill="#ff0055" rx="2"/>
  <rect x="62" y="28" width="36" height="14" fill="#ff0055" rx="2"/>
  <rect x="104" y="28" width="36" height="14" fill="#ff0055" rx="2"/>
  <rect x="146" y="28" width="36" height="14" fill="#ff0055" rx="2"/>
  <!-- ブロック（行2: オレンジ） -->
  <rect x="20" y="48" width="36" height="14" fill="#ff6600" rx="2"/>
  <rect x="62" y="48" width="36" height="14" fill="#ff6600" rx="2"/>
  <rect x="104" y="48" width="36" height="14" fill="#ff6600" rx="2"/>
  <rect x="146" y="48" width="36" height="14" fill="#ff6600" rx="2"/>
  <!-- ブロック（行3: 黄） -->
  <rect x="20" y="68" width="36" height="14" fill="#ffcc00" rx="2"/>
  <rect x="62" y="68" width="36" height="14" fill="#ffcc00" rx="2"/>
  <rect x="104" y="68" width="36" height="14" fill="#ffcc00" rx="2"/>
  <rect x="146" y="68" width="36" height="14" fill="#ffcc00" rx="2"/>
  <!-- ボール -->
  <circle cx="96" cy="128" r="12" fill="#ffffff"/>
  <!-- パドル -->
  <rect x="54" y="152" width="84" height="12" fill="#00ccff" rx="4"/>
</svg>
